# xmcd
#
# Track frame offsets: 
#        150
#        15778
#        29290
#        47298
#        65548
#        81963
#        96560
#        112970
#        127365
#        142985
#        158108
#
# Disc length: 2335 seconds
#
# Revision: 0
# Processed by: cddbd v1.5.2PL0 Copyright (c) Steve Scherf et al.
# Submitted via: ExactAudioCopyFreeDBPlugin 1.0
#
DISCID=89091d0b
DTITLE=Various Artist - 青春ヒットファイル ドーナツ盤の時代 13 真夜中のギター
DYEAR=1997
DGENRE=Pop
TTITLE0=夕笛
TTITLE1=白馬のルンナ
TTITLE2=竹馬の友
TTITLE3=大都会の恋人たち
TTITLE4=思案橋ブルース
TTITLE5=愛のさざなみ
TTITLE6=雨に濡れた慕情
TTITLE7=真夜中のギター
TTITLE8=四つのお願い
TTITLE9=X and Y =Love
TTITLE10=マリリンモンローノーリターン
EXTD=
EXTT0=
EXTT1=
EXTT2=
EXTT3=
EXTT4=
EXTT5=
EXTT6=
EXTT7=
EXTT8=
EXTT9=
EXTT10=
PLAYORDER=
